 <svg  version="1.0" xmlns="http://www.w3.org/2000/svg"  width="300.000000pt" height="256.000000pt" viewBox="0 0 300.000000 256.000000"  preserveAspectRatio="xMidYMid meet">  <g transform="translate(0.000000,256.000000) scale(0.100000,-0.100000)" fill="#1ed254" stroke="none"> <path d="M1786 2523 c-3 -21 -6 -45 -7 -53 0 -8 -3 -22 -6 -30 -3 -8 -7 -41 -9 -74 -2 -45 -8 -62 -23 -73 -12 -8 -21 -25 -21 -39 0 -17 -5 -24 -20 -24 -32 0 -53 -43 -45 -90 4 -22 11 -42 16 -46 5 -3 9 -9 9 -15 0 -5 -15 6 -34 26 -52 53 -86 43 -86 -25 0 -34 -2 -36 -27 -33 -42 6 -57 -24 -38 -78 21 -59 19 -64 -16 -35 -35 30 -39 31 -64 13 -14 -11 -17 -21 -11 -47 3 -19 13 -41 21 -50 8 -9 21 -33 30 -53 l16 -38 -31 23 c-32 23 -52 20 -73 -13 -10 -15 20 -84 74 -174 13 -22 33 -55 44 -73 11 -19 39 -59 63 -89 47 -61 49 -91 13 -143 -22 -32 -58 -110 -67 -144 -4 -19 -1 -33 11 -46 16 -18 31 -20 149 -19 99 0 148 5 201 20 39 11 83 20 99 19 37 -1 108 41 172 102 l51 48 277 -2 277 -3 33 -75 33 -75 -416 -5 c-344 -4 -411 -7 -388 -18 21 -9 125 -12 405 -12 464 0 451 -4 394 123 -48 104 -32 99 -331 101 -143 0 -263 4 -267 8 -4 5 1 23 11 42 18 34 20 34 46 20 21 -11 72 -14 211 -14 249 0 259 7 193 147 -19 41 -35 76 -35 78 0 2 -16 38 -35 79 -19 42 -35 78 -35 80 0 2 -18 44 -41 93 -22 48 -54 116 -70 151 -16 35 -29 65 -29 67 0 3 -13 33 -29 67 -16 35 -43 93 -59 129 -39 87 -58 99 -149 99 -67 0 -73 2 -73 20 0 11 -12 28 -28 38 -15 9 -26 24 -24 33 1 8 -12 39 -30 67 -24 37 -39 52 -55 52 -14 0 -23 -6 -23 -15 0 -9 -7 -30 -16 -46 -8 -17 -14 -40 -12 -52 3 -17 10 -8 31 37 21 46 30 57 39 48 9 -9 5 -27 -20 -75 -18 -34 -32 -73 -32 -87 0 -25 0 -25 13 -3 46 80 62 103 74 103 18 0 16 -9 -12 -55 -13 -22 -29 -50 -34 -62 -5 -11 -15 -24 -20 -28 -6 -3 -11 -20 -11 -36 0 -29 2 -28 56 35 49 58 84 82 84 58 0 -5 -34 -48 -75 -96 -41 -48 -75 -97 -75 -108 0 -18 3 -18 34 9 18 15 45 52 59 81 l27 52 105 0 c100 0 106 -1 114 -22 5 -13 97 -220 205 -460 108 -241 196 -440 196 -443 0 -3 -94 -5 -210 -5 -115 0 -210 3 -210 6 0 3 5 15 12 27 6 12 14 46 17 77 l6 55 49 -3 c38 -3 48 -1 43 10 -67 159 -206 499 -211 516 -10 29 -22 28 -30 -3 -4 -14 -17 -30 -30 -35 -13 -5 -27 -14 -31 -19 -3 -6 -16 -11 -29 -11 -12 0 -37 -11 -56 -25 -19 -14 -38 -25 -44 -25 -5 0 -21 -10 -34 -22 l-25 -23 7 30 c8 34 50 74 141 130 88 55 105 68 105 81 0 8 -1 14 -3 14 -12 0 -86 -42 -97 -54 -7 -9 -20 -16 -29 -16 -10 0 -30 -13 -46 -30 -16 -16 -35 -30 -42 -30 -7 0 -13 -6 -13 -13 0 -8 -11 -40 -26 -73 -14 -32 -22 -48 -19 -34 17 69 17 96 1 109 -9 7 -16 24 -16 37 0 13 -11 35 -25 50 -14 15 -25 35 -25 44 0 10 -7 23 -16 31 -30 25 -55 89 -34 89 25 0 115 -144 135 -215 l8 -30 7 30 c21 85 2 136 -85 231 -33 35 -45 64 -27 64 31 -2 84 -57 114 -120 l16 -35 1 58 c1 31 -3 57 -8 57 -8 0 -63 40 -110 80 -13 11 -21 23 -18 26 11 11 65 -17 101 -52 l36 -35 -7 33 c-3 18 -11 36 -17 40 -6 3 -32 19 -58 35 -26 15 -48 32 -48 37 0 16 55 -5 84 -32 22 -20 27 -23 23 -9 -4 10 -7 23 -7 28 0 5 -6 9 -13 9 -14 0 -67 56 -67 71 0 5 -4 9 -9 9 -5 0 -12 -17 -15 -37z m-61 -359 c11 -21 36 -64 55 -94 49 -79 82 -177 68 -204 -11 -21 -12 -21 -19 4 -3 14 -14 39 -23 55 -9 17 -16 37 -16 45 0 8 -13 28 -30 43 -16 16 -30 34 -30 41 0 7 -11 27 -25 46 -17 22 -25 47 -25 73 0 49 17 45 45 -9z m-90 -98 c19 -30 41 -59 49 -63 7 -4 19 -19 26 -33 7 -14 21 -34 31 -45 32 -36 74 -175 52 -175 -8 0 -16 13 -51 85 -11 22 -31 51 -46 64 -14 14 -26 31 -26 38 0 8 -13 26 -29 41 -27 24 -60 97 -61 130 0 26 22 10 55 -42z m523 -33 c-2 -10 -15 -23 -29 -30 -17 -8 -34 -31 -47 -63 -16 -38 -26 -50 -42 -50 -12 0 -33 -9 -47 -20 -14 -11 -35 -20 -45 -20 -11 0 -38 -14 -60 -31 -21 -17 -41 -29 -44 -27 -2 3 5 26 17 52 16 37 29 51 62 66 23 11 53 26 67 34 14 8 36 17 50 20 23 5 54 30 88 71 17 20 34 19 30 -2z m-609 -30 c12 -16 44 -57 71 -92 28 -35 50 -69 50 -74 0 -6 6 -18 14 -26 20 -23 56 -130 56 -168 0 -51 -15 -46 -30 10 -7 29 -21 63 -31 76 -11 13 -19 32 -19 42 0 10 -15 30 -34 44 -19 14 -37 38 -41 53 -3 15 -14 34 -24 42 -21 17 -62 105 -53 114 10 11 21 6 41 -21z m-99 -73 c0 -5 19 -32 43 -59 72 -86 107 -133 107 -146 0 -7 7 -18 15 -25 16 -14 70 -122 78 -156 7 -35 -10 -53 -19 -19 -8 33 -52 101 -84 130 -12 11 -29 37 -37 57 -8 20 -25 44 -38 52 -13 8 -26 28 -30 44 -3 16 -17 39 -30 51 -14 11 -25 27 -25 35 0 8 -3 21 -6 30 -4 11 -1 16 10 16 9 0 16 -4 16 -10z m730 -9 c0 -12 -9 -23 -22 -27 -13 -4 -34 -15 -47 -25 -13 -11 -32 -19 -42 -19 -17 0 -56 -56 -46 -66 2 -2 22 5 45 16 48 23 62 25 62 8 -1 -17 -65 -57 -100 -65 -17 -3 -32 -15 -40 -32 -29 -66 -54 -91 -89 -91 -19 0 -43 -7 -52 -16 -10 -9 -30 -18 -45 -20 -14 -1 -37 -13 -50 -25 -32 -30 -30 -11 4 51 20 37 33 50 50 50 13 0 37 8 55 17 18 9 50 22 72 28 38 12 85 58 72 71 -3 4 -17 0 -30 -9 -13 -9 -41 -19 -61 -22 -20 -4 -39 -11 -42 -16 -3 -5 -23 -18 -45 -29 l-39 -20 12 27 c14 34 45 63 67 63 9 0 27 9 41 20 14 11 37 20 51 20 18 0 42 15 70 43 38 36 118 86 142 87 4 0 7 -9 7 -19z m89 -181 c28 -68 51 -130 51 -136 0 -7 -14 -20 -32 -28 -28 -14 -34 -15 -54 -1 -30 20 -130 20 -168 0 -36 -19 -36 -19 -35 3 0 9 24 35 52 58 55 42 62 58 39 86 -12 14 -11 20 8 46 16 21 21 38 16 55 -5 20 0 30 22 46 21 15 30 17 38 8 7 -7 35 -68 63 -137z m-820 -17 c23 -29 41 -56 41 -61 0 -5 7 -15 15 -22 8 -7 15 -19 15 -27 0 -8 11 -28 25 -45 14 -16 25 -35 25 -42 0 -7 9 -21 19 -30 10 -10 24 -37 30 -62 6 -24 17 -44 24 -44 7 0 25 29 41 65 22 52 33 65 50 65 12 0 31 7 42 15 10 8 36 15 56 15 46 0 101 35 122 78 11 23 22 32 40 32 14 0 27 4 31 9 7 13 64 41 82 41 23 0 14 -19 -17 -35 -16 -9 -30 -20 -30 -25 0 -5 -9 -12 -20 -15 -11 -4 -32 -17 -47 -31 -14 -13 -34 -24 -43 -24 -10 0 -21 -7 -24 -16 -6 -15 0 -16 44 -10 38 5 50 3 50 -6 -1 -23 -36 -92 -64 -125 l-28 -33 -106 0 c-58 0 -103 3 -99 6 6 7 67 21 127 31 19 3 46 14 59 24 13 11 28 19 34 19 13 0 57 40 57 52 0 10 -31 3 -74 -18 -16 -8 -36 -14 -45 -14 -9 0 -25 -7 -35 -15 -11 -8 -32 -15 -47 -15 -14 0 -32 -6 -38 -14 -7 -8 -24 -17 -39 -21 -32 -8 -54 -24 -47 -35 3 -4 -1 -10 -9 -13 -7 -3 -19 -28 -26 -56 -8 -34 -17 -51 -27 -51 -11 0 -14 6 -9 23 17 62 18 93 2 106 -9 7 -16 19 -16 25 0 7 -13 25 -30 41 -16 15 -32 41 -35 56 -4 16 -15 34 -25 39 -10 5 -23 25 -30 44 -6 18 -20 42 -30 51 -11 10 -20 26 -20 36 0 10 -5 21 -11 24 -13 9 -28 47 -22 58 8 13 19 4 62 -50z m172 -158 c38 -58 51 -101 28 -93 -12 4 -119 176 -119 191 0 18 51 -36 91 -98z m605 -60 c-13 -113 -107 -241 -231 -314 -104 -63 -153 -74 -329 -79 -94 -2 -157 0 -155 5 43 105 66 153 77 153 10 0 11 -14 6 -60 -6 -52 -4 -60 10 -60 12 0 16 10 16 48 0 26 4 52 8 58 4 7 46 13 97 16 75 3 102 9 155 35 100 47 168 126 185 214 l6 34 81 0 80 0 -6 -50z m-404 -144 l73 -6 -26 -18 c-31 -20 -98 -33 -156 -29 -47 3 -52 14 -27 50 11 16 21 21 39 16 13 -3 57 -9 97 -13z"/> <path d="M1845 2530 c16 -16 31 -28 33 -25 9 9 -29 55 -45 55 -13 0 -10 -7 12 -30z"/> <path d="M1888 2525 c4 -35 22 -40 22 -6 0 9 5 22 12 29 9 9 6 12 -13 12 -23 0 -25 -3 -21 -35z"/> <path d="M2050 2239 c-30 -21 -60 -50 -67 -64 -16 -29 -1 -34 19 -7 7 10 27 24 43 31 32 13 81 67 68 74 -5 2 -33 -13 -63 -34z"/> <path d="M1936 2132 c-6 -11 -20 -88 -14 -82 3 3 15 24 27 48 17 34 19 42 7 42 -8 0 -17 -3 -20 -8z"/> <path d="M797 1353 c-4 -3 -66 -5 -138 -4 -139 2 -179 -8 -179 -48 0 -25 32 -51 62 -51 34 0 38 -14 38 -130 0 -80 3 -102 18 -120 14 -18 25 -21 44 -17 36 9 42 27 48 152 l5 110 33 3 c17 2 32 0 33 -5 0 -4 2 -57 5 -118 4 -81 10 -115 21 -127 40 -45 83 -3 83 80 0 63 13 92 41 92 25 0 39 -36 38 -100 -2 -54 19 -90 51 -90 17 0 44 25 51 47 3 8 19 2 48 -17 35 -24 55 -30 98 -30 47 0 59 4 84 30 21 21 29 36 24 49 -3 12 1 31 11 46 28 43 0 121 -55 150 -63 32 -129 23 -178 -25 l-32 -32 -36 36 c-22 23 -46 36 -63 37 -75 3 -77 4 -80 29 -6 44 -52 76 -75 53z m43 -80 c0 -62 1 -65 18 -51 27 25 59 30 97 18 54 -18 65 -42 65 -142 0 -85 -1 -88 -22 -88 -22 0 -23 3 -20 75 3 69 2 76 -23 101 -20 20 -32 24 -53 20 -48 -12 -62 -40 -62 -122 0 -70 -1 -74 -22 -74 l-23 0 3 165 c3 156 4 165 22 165 18 0 20 -7 20 -67z m-80 27 c0 -17 -7 -20 -52 -20 l-53 0 3 -135 3 -135 -25 0 -26 0 0 135 0 135 -55 0 c-48 0 -55 2 -55 20 0 19 7 20 130 20 123 0 130 -1 130 -20z m475 -64 c36 -16 65 -59 65 -101 l0 -25 -95 0 c-52 0 -95 -4 -95 -8 0 -13 43 -49 68 -57 13 -4 35 0 54 9 23 12 34 13 45 5 19 -16 0 -36 -45 -49 -81 -22 -162 34 -162 111 0 53 22 92 62 112 41 20 59 21 103 3z"/> <path d="M1135 1185 c-39 -38 -32 -45 50 -45 84 0 96 12 49 49 -35 28 -69 26 -99 -4z"/> <path d="M880 921 c-14 -3 -33 -11 -42 -16 -20 -12 -138 -272 -138 -304 0 -28 41 -54 73 -46 14 4 37 20 51 36 37 41 81 40 136 -6 51 -42 74 -44 109 -6 l26 28 27 -28 c27 -31 64 -37 99 -18 11 5 43 58 70 116 27 58 51 104 53 102 2 -2 6 -46 9 -97 6 -124 8 -126 143 -130 82 -3 110 -1 128 12 22 14 27 14 57 -1 30 -15 34 -15 65 2 28 15 34 24 34 51 0 18 4 35 8 38 5 3 32 -19 60 -48 28 -29 59 -53 69 -54 29 -1 65 21 74 47 l10 24 22 -20 c74 -69 201 -70 261 -4 24 27 32 26 40 -2 8 -35 47 -47 151 -47 85 0 97 2 122 24 24 21 26 27 18 52 -6 16 -20 33 -33 39 -26 11 -27 18 -7 35 17 14 20 57 6 79 -7 10 -3 23 10 39 24 31 24 64 1 85 -15 14 -40 17 -128 17 -74 0 -114 -4 -122 -12 -10 -10 -17 -10 -32 0 -28 17 -85 15 -101 -5 -9 -10 -16 -53 -19 -117 l-5 -101 -30 0 -30 0 -5 103 c-4 88 -8 106 -24 118 -23 17 -77 19 -93 3 -8 -8 -17 -8 -31 0 -56 30 -112 0 -112 -61 0 -16 -4 -28 -8 -28 -4 0 -30 23 -57 50 -53 54 -92 64 -131 36 -16 -13 -21 -12 -36 1 -14 13 -40 15 -130 13 -62 -2 -137 -2 -166 -1 -31 1 -60 -3 -69 -11 -8 -7 -28 -41 -44 -75 -16 -35 -31 -63 -34 -63 -3 0 -18 27 -35 61 -40 82 -46 89 -91 89 -44 0 -69 -20 -70 -58 0 -16 -3 -21 -6 -12 -7 20 -44 60 -63 69 -8 4 -26 5 -40 2z m205 -36 c6 -1 30 -50 54 -109 l45 -106 45 109 c45 107 47 109 81 114 19 2 36 3 38 2 1 -1 -28 -73 -65 -159 l-67 -156 -36 0 -35 0 -65 151 c-36 83 -66 155 -68 160 -3 7 39 4 73 -6z m535 -24 l0 -34 -80 5 -80 5 0 -34 0 -33 70 0 70 0 0 -30 0 -30 -70 0 -70 0 0 -35 0 -35 85 0 85 0 0 -30 0 -30 -123 0 -123 0 2 158 c2 86 3 157 4 157 0 0 52 0 115 0 l115 0 0 -34z m195 -62 l70 -89 5 92 5 93 33 0 32 0 0 -157 0 -158 -27 0 c-23 0 -42 17 -105 96 l-78 96 0 -96 0 -96 -35 0 -35 0 0 158 0 158 33 -4 c27 -3 44 -19 102 -93z m275 -15 c0 -105 1 -114 22 -128 30 -21 71 -20 91 2 12 14 17 43 19 127 l3 109 35 0 35 0 3 -95 c3 -117 -10 -165 -57 -196 -40 -27 -117 -31 -161 -8 -47 24 -63 67 -68 177 -2 54 -2 103 1 110 2 7 21 13 41 14 l36 1 0 -113z m495 79 l0 -28 -82 0 -83 1 0 -33 0 -33 75 0 75 0 0 -30 0 -30 -75 0 -75 0 0 -35 0 -35 85 0 85 0 0 -30 0 -30 -120 0 -120 0 0 158 0 157 117 -2 118 -2 0 -28z m-1588 -128 l71 -155 -40 0 c-35 0 -40 3 -54 35 l-14 35 -74 0 -73 0 -9 -32 c-9 -30 -14 -33 -51 -36 l-41 -3 71 155 70 156 37 0 37 0 70 -155z m653 67 c0 -4 -4 -13 -9 -21 -8 -13 -12 -13 -26 -1 -16 13 -16 15 1 27 16 12 34 9 34 -5z m-2 -115 c-2 -16 -9 -21 -23 -19 -29 5 -30 10 -12 30 10 10 17 25 17 33 1 10 4 9 11 -4 6 -10 9 -28 7 -40z"/> <path d="M865 768 c-11 -29 -21 -56 -23 -60 -2 -5 19 -8 47 -8 28 0 51 2 51 4 0 5 -51 116 -53 116 -1 0 -11 -24 -22 -52z"/> <path d="M1913 502 c-15 -10 -34 -58 -28 -74 3 -7 1 -19 -4 -26 -7 -12 -14 -11 -39 2 -35 18 -88 21 -125 7 -26 -10 -70 -50 -85 -78 -9 -15 -14 -15 -60 5 -28 12 -57 22 -66 22 -21 0 -31 21 -16 30 7 5 36 6 64 3 44 -4 53 -2 64 16 34 58 -68 108 -166 82 -54 -15 -92 -60 -92 -111 0 -55 37 -96 106 -116 29 -8 56 -19 59 -24 10 -16 -30 -21 -78 -8 -57 14 -80 5 -85 -35 -9 -73 177 -101 246 -37 27 25 44 25 67 0 39 -43 126 -49 182 -13 21 14 25 14 42 -1 49 -44 91 -3 91 91 0 53 3 64 21 73 33 18 49 -4 49 -69 0 -68 17 -105 50 -109 17 -3 31 4 46 23 l22 28 27 -21 c63 -50 153 -49 209 3 15 14 30 25 33 25 3 0 20 -13 38 -29 58 -51 137 -50 204 1 30 23 37 23 44 -2 3 -10 17 -22 33 -26 22 -6 31 -2 46 16 16 19 18 42 18 171 0 136 -2 151 -20 169 -11 11 -27 20 -35 20 -24 0 -50 -37 -51 -73 -1 -18 -2 -42 -3 -54 l-1 -22 -36 24 c-69 47 -145 45 -203 -4 l-34 -29 -38 30 c-67 54 -159 49 -213 -11 -25 -28 -31 -27 -64 10 -22 25 -38 32 -82 37 -49 6 -55 10 -58 32 -7 46 -46 73 -79 52z m47 -78 l0 -65 22 15 c38 27 95 20 129 -13 28 -28 29 -33 29 -120 0 -90 0 -91 -25 -91 -25 0 -25 1 -25 88 0 98 -7 112 -57 112 -57 0 -73 -27 -73 -120 0 -79 0 -80 -25 -80 l-25 0 0 163 c0 90 2 166 5 168 2 3 13 5 25 6 18 2 20 -4 20 -63z m840 -110 l0 -164 -25 0 -25 0 0 163 c0 90 3 166 6 169 3 3 14 4 25 1 18 -5 19 -15 19 -169z m-1211 136 c17 -9 19 -15 11 -30 -9 -17 -13 -18 -38 -4 -55 28 -132 7 -132 -37 0 -21 33 -39 106 -58 59 -16 88 -51 80 -96 -12 -65 -104 -94 -191 -60 -45 17 -49 22 -39 48 4 12 11 11 42 -4 69 -36 147 -18 140 32 -2 20 -14 28 -72 46 -87 28 -106 45 -106 93 0 36 23 69 60 84 22 8 115 0 139 -14z m255 -81 c14 -11 26 -24 26 -29 0 -16 -33 -20 -50 -5 -19 17 -62 20 -90 5 -10 -5 -23 -23 -28 -40 -27 -75 52 -139 115 -95 21 15 53 11 53 -6 0 -5 -15 -18 -32 -30 -98 -61 -222 45 -178 152 27 65 129 91 184 48z m534 1 c75 -46 69 -166 -12 -204 -42 -20 -78 -20 -116 -1 -43 22 -60 53 -60 108 0 42 5 54 34 83 28 28 41 34 78 34 25 0 56 -8 76 -20z m271 5 c30 -15 61 -69 61 -105 0 -57 -65 -120 -125 -120 -60 0 -125 63 -125 120 0 35 31 90 59 105 34 19 95 19 130 0z m-801 -69 c30 -1 32 -3 32 -35 0 -29 -3 -33 -21 -28 -11 3 -36 -1 -55 -9 -43 -18 -74 -3 -74 38 0 33 26 50 60 41 14 -4 40 -7 58 -7z"/> <path d="M2251 324 c-54 -69 12 -159 94 -128 43 17 54 96 18 137 -26 28 -87 23 -112 -9z m80 -14 c37 -20 21 -80 -22 -80 -41 0 -61 41 -34 70 21 23 29 24 56 10z"/> <path d="M2530 330 c-31 -31 -27 -93 6 -119 34 -27 64 -27 98 0 20 16 26 29 26 60 0 50 -27 79 -75 79 -22 0 -43 -8 -55 -20z m84 -26 c20 -20 20 -48 1 -68 -24 -23 -75 0 -75 35 0 21 26 49 45 49 7 0 21 -7 29 -16z"/> </g> </svg> 